<svg width="45" height="45" viewBox="0 0 45 45" fill="none" xmlns="http://www.w3.org/2000/svg">
<path d="M41.25 22.5C41.25 12.15 32.85 3.75 22.5 3.75C12.15 3.75 3.75 12.15 3.75 22.5C3.75 32.85 12.15 41.25 22.5 41.25" stroke="#171717" stroke-width="2" stroke-linecap="round" stroke-linejoin="round"/>
<path d="M15 5.625H16.875C13.2188 16.575 13.2188 28.425 16.875 39.375H15" stroke="#171717" stroke-width="2" stroke-linecap="round" stroke-linejoin="round"/>
<path d="M28.125 5.625C29.9438 11.1 30.8625 16.8 30.8625 22.5" stroke="#171717" stroke-width="2" stroke-linecap="round" stroke-linejoin="round"/>
<path d="M5.625 30V28.125C11.1 29.9438 16.8 30.8625 22.5 30.8625" stroke="#171717" stroke-width="2" stroke-linecap="round" stroke-linejoin="round"/>
<path d="M5.625 16.875C16.575 13.2188 28.425 13.2188 39.375 16.875" stroke="#171717" stroke-width="2" stroke-linecap="round" stroke-linejoin="round"/>
<path d="M36.0187 29.5125L29.3812 36.1501C29.1187 36.4126 28.8749 36.9 28.8187 37.2563L28.4624 39.7875C28.3312 40.7063 28.9687 41.3438 29.8875 41.2125L32.4187 40.8563C32.7749 40.8 33.2812 40.5563 33.525 40.2938L40.1624 33.6563C41.3062 32.5126 41.8499 31.1813 40.1624 29.4938C38.4937 27.825 37.1625 28.3688 36.0187 29.5125Z" stroke="#171717" stroke-width="2" stroke-miterlimit="10" stroke-linecap="round" stroke-linejoin="round"/>
<path d="M35.0625 30.4688C35.625 32.4938 37.2 34.0687 39.225 34.6312" stroke="#171717" stroke-width="2" stroke-miterlimit="10" stroke-linecap="round" stroke-linejoin="round"/>
</svg>
