<svg width="45" height="45" viewBox="0 0 45 45" fill="none" xmlns="http://www.w3.org/2000/svg">
<path d="M16.8789 13.125C16.9016 9.04683 17.0825 6.83824 18.5232 5.39752C20.1707 3.75 22.8223 3.75 28.1256 3.75L30.0006 3.75C35.3039 3.75 37.9556 3.75 39.6031 5.39752C41.2506 7.04505 41.2506 9.6967 41.2506 15L41.2506 30C41.2506 35.3033 41.2506 37.955 39.6031 39.6025C37.9556 41.25 35.3039 41.25 30.0006 41.25H28.1256C22.8223 41.25 20.1707 41.25 18.5232 39.6025C17.0825 38.1618 16.9016 35.9532 16.8789 31.875" stroke="#1C274C" stroke-width="2" stroke-linecap="round"/>
<path d="M28.125 22.5L3.75 22.5M3.75 22.5L10.3125 16.875M3.75 22.5L10.3125 28.125" stroke="#1C274C" stroke-width="2" stroke-linecap="round" stroke-linejoin="round"/>
</svg>
