<svg width="144" height="36" viewBox="0 0 144 36" fill="none" xmlns="http://www.w3.org/2000/svg">
<rect width="144" height="36" rx="18" fill="#5B7CFD"/>
<path d="M48.935 10.6273C49.135 10.6273 49.31 10.6773 49.46 10.7773C49.62 10.8773 49.7 11.0373 49.7 11.2573V12.7573C49.7 13.2573 49.78 13.6923 49.94 14.0623C50.1 14.4223 50.36 14.7623 50.72 15.0823C51.07 15.3823 51.395 15.6523 51.695 15.8923C51.995 16.1323 52.275 16.3523 52.535 16.5523C52.705 16.6923 52.79 16.8473 52.79 17.0173C52.79 17.1873 52.735 17.3423 52.625 17.4823C52.525 17.6223 52.39 17.7223 52.22 17.7823C52.05 17.8323 51.88 17.7923 51.71 17.6623C51.47 17.4923 51.205 17.2923 50.915 17.0623C50.635 16.8223 50.335 16.5673 50.015 16.2973C49.655 15.9773 49.4 15.7273 49.25 15.5473C49.1 15.3573 49.005 15.1773 48.965 15.0073H48.95C48.91 15.1773 48.815 15.3673 48.665 15.5773C48.515 15.7773 48.25 16.0423 47.87 16.3723C47.55 16.6523 47.23 16.9223 46.91 17.1823C46.59 17.4323 46.27 17.6723 45.95 17.9023C45.78 18.0323 45.605 18.0723 45.425 18.0223C45.255 17.9623 45.12 17.8623 45.02 17.7223C44.91 17.5823 44.85 17.4223 44.84 17.2423C44.84 17.0623 44.93 16.9023 45.11 16.7623C45.46 16.5023 45.8 16.2423 46.13 15.9823C46.46 15.7223 46.8 15.4373 47.15 15.1273C47.51 14.8073 47.77 14.4673 47.93 14.1073C48.09 13.7373 48.17 13.3073 48.17 12.8173V11.2573C48.17 11.0373 48.245 10.8773 48.395 10.7773C48.555 10.6773 48.735 10.6273 48.935 10.6273ZM55.085 10.0573C55.285 10.0573 55.46 10.1073 55.61 10.2073C55.76 10.3073 55.835 10.4673 55.835 10.6873V19.5673C55.835 19.7873 55.76 19.9473 55.61 20.0473C55.46 20.1473 55.285 20.1973 55.085 20.1973C54.885 20.1973 54.71 20.1473 54.56 20.0473C54.41 19.9473 54.335 19.7873 54.335 19.5673V10.6873C54.335 10.4673 54.41 10.3073 54.56 10.2073C54.71 10.1073 54.885 10.0573 55.085 10.0573ZM47.84 18.9373C48.03 18.9373 48.2 18.9873 48.35 19.0873C48.51 19.1873 48.59 19.3473 48.59 19.5673V22.1023C48.59 22.2123 48.61 22.2873 48.65 22.3273C48.7 22.3773 48.785 22.4023 48.905 22.4023H55.655C55.845 22.4023 55.98 22.4673 56.06 22.5973C56.15 22.7273 56.195 22.8823 56.195 23.0623C56.195 23.2323 56.15 23.3823 56.06 23.5123C55.98 23.6423 55.845 23.7073 55.655 23.7073H48.23C47.79 23.7073 47.485 23.6273 47.315 23.4673C47.155 23.3073 47.075 23.0123 47.075 22.5823V19.5673C47.075 19.3473 47.15 19.1873 47.3 19.0873C47.46 18.9873 47.64 18.9373 47.84 18.9373ZM62.5123 9.90729C62.7123 9.90729 62.8873 9.95729 63.0373 10.0573C63.1873 10.1573 63.2623 10.3173 63.2623 10.5373V11.6473H65.7523C65.9323 11.6473 66.0623 11.7123 66.1423 11.8423C66.2323 11.9723 66.2773 12.1223 66.2773 12.2923C66.2773 12.4623 66.2323 12.6123 66.1423 12.7423C66.0623 12.8623 65.9323 12.9223 65.7523 12.9223H63.2623V13.6573C63.2623 14.1073 63.3323 14.4773 63.4723 14.7673C63.6223 15.0573 63.8673 15.3273 64.2073 15.5773C64.5573 15.8373 64.8823 16.0723 65.1823 16.2823C65.4823 16.4823 65.7473 16.6573 65.9773 16.8073C66.1473 16.9173 66.2423 17.0623 66.2623 17.2423C66.2923 17.4223 66.2523 17.5823 66.1423 17.7223C66.0623 17.8523 65.9373 17.9473 65.7673 18.0073C65.6073 18.0673 65.4273 18.0373 65.2273 17.9173C65.0573 17.8073 64.8323 17.6623 64.5523 17.4823C64.2823 17.2923 63.9923 17.0823 63.6823 16.8523C63.2923 16.5723 63.0123 16.3373 62.8423 16.1473C62.6723 15.9573 62.5723 15.7873 62.5423 15.6373H62.5273C62.4873 15.8073 62.3773 15.9923 62.1973 16.1923C62.0273 16.3923 61.7423 16.6373 61.3423 16.9273C61.0223 17.1573 60.7123 17.3773 60.4123 17.5873C60.1123 17.7873 59.8173 17.9823 59.5273 18.1723C59.3573 18.2823 59.1873 18.3073 59.0173 18.2473C58.8473 18.1773 58.7223 18.0773 58.6423 17.9473C58.5423 17.7973 58.4973 17.6373 58.5073 17.4673C58.5173 17.2873 58.6123 17.1373 58.7923 17.0173C59.1223 16.7973 59.4523 16.5773 59.7823 16.3573C60.1123 16.1273 60.4573 15.8823 60.8173 15.6223C61.1573 15.3623 61.3973 15.0923 61.5373 14.8123C61.6873 14.5223 61.7623 14.1523 61.7623 13.7023V12.9223H59.1673C58.9773 12.9223 58.8373 12.8623 58.7473 12.7423C58.6673 12.6123 58.6273 12.4623 58.6273 12.2923C58.6273 12.1223 58.6673 11.9723 58.7473 11.8423C58.8373 11.7123 58.9773 11.6473 59.1673 11.6473H61.7623V10.5373C61.7623 10.3173 61.8373 10.1573 61.9873 10.0573C62.1473 9.95729 62.3223 9.90729 62.5123 9.90729ZM68.8423 10.0573C69.0323 10.0573 69.2023 10.1073 69.3523 10.2073C69.5023 10.3073 69.5773 10.4673 69.5773 10.6873V17.9623C69.5773 18.1723 69.5023 18.3273 69.3523 18.4273C69.2023 18.5273 69.0323 18.5773 68.8423 18.5773C68.6423 18.5773 68.4673 18.5273 68.3173 18.4273C68.1673 18.3273 68.0923 18.1723 68.0923 17.9623V15.3223H65.9773C65.7973 15.3223 65.6623 15.2573 65.5723 15.1273C65.4923 14.9973 65.4523 14.8473 65.4523 14.6773C65.4523 14.5073 65.4923 14.3573 65.5723 14.2273C65.6623 14.0973 65.7973 14.0323 65.9773 14.0323H68.0923V10.6873C68.0923 10.4673 68.1673 10.3073 68.3173 10.2073C68.4673 10.1073 68.6423 10.0573 68.8423 10.0573ZM65.2573 18.7123C66.6573 18.7123 67.7373 18.9373 68.4973 19.3873C69.2673 19.8373 69.6523 20.5073 69.6523 21.3973C69.6523 22.2973 69.2673 22.9673 68.4973 23.4073C67.7373 23.8573 66.6573 24.0823 65.2573 24.0823C63.8573 24.0823 62.7723 23.8573 62.0023 23.4073C61.2423 22.9673 60.8623 22.2973 60.8623 21.3973C60.8623 20.4973 61.2423 19.8273 62.0023 19.3873C62.7723 18.9373 63.8573 18.7123 65.2573 18.7123ZM65.2573 19.9273C64.2373 19.9273 63.4973 20.0623 63.0373 20.3323C62.5773 20.5923 62.3473 20.9473 62.3473 21.3973C62.3473 21.8473 62.5773 22.2023 63.0373 22.4623C63.4973 22.7323 64.2373 22.8673 65.2573 22.8673C66.2773 22.8673 67.0173 22.7323 67.4773 22.4623C67.9373 22.2023 68.1673 21.8473 68.1673 21.3973C68.1673 20.9473 67.9373 20.5923 67.4773 20.3323C67.0173 20.0623 66.2773 19.9273 65.2573 19.9273ZM75.9247 14.1973C76.4247 14.1973 76.8747 14.2723 77.2747 14.4223C77.6747 14.5623 78.0097 14.7623 78.2797 15.0223C78.5597 15.2823 78.7747 15.5923 78.9247 15.9523C79.0747 16.3123 79.1497 16.7123 79.1497 17.1523C79.1497 17.5923 79.0747 17.9923 78.9247 18.3523C78.7747 18.7123 78.5597 19.0223 78.2797 19.2823C78.0097 19.5423 77.6747 19.7473 77.2747 19.8973C76.8747 20.0373 76.4247 20.1073 75.9247 20.1073C75.4247 20.1073 74.9747 20.0373 74.5747 19.8973C74.1747 19.7473 73.8347 19.5423 73.5547 19.2823C73.2747 19.0223 73.0597 18.7123 72.9097 18.3523C72.7697 17.9923 72.6997 17.5923 72.6997 17.1523C72.6997 16.7123 72.7697 16.3123 72.9097 15.9523C73.0597 15.5923 73.2747 15.2823 73.5547 15.0223C73.8347 14.7623 74.1747 14.5623 74.5747 14.4223C74.9747 14.2723 75.4247 14.1973 75.9247 14.1973ZM75.9247 10.0273C76.1247 10.0273 76.2997 10.0773 76.4497 10.1773C76.5997 10.2773 76.6747 10.4373 76.6747 10.6573V11.9473H79.3747C79.5547 11.9473 79.6847 12.0123 79.7647 12.1423C79.8547 12.2623 79.8997 12.4073 79.8997 12.5773C79.8997 12.7473 79.8547 12.8973 79.7647 13.0273C79.6847 13.1573 79.5547 13.2223 79.3747 13.2223H72.3097C72.1297 13.2223 71.9947 13.1573 71.9047 13.0273C71.8247 12.8973 71.7847 12.7473 71.7847 12.5773C71.7847 12.4073 71.8247 12.2623 71.9047 12.1423C71.9947 12.0123 72.1297 11.9473 72.3097 11.9473H75.1747V10.6573C75.1747 10.4373 75.2497 10.2773 75.3997 10.1773C75.5597 10.0773 75.7347 10.0273 75.9247 10.0273ZM75.9247 15.4123C75.3547 15.4123 74.8997 15.5723 74.5597 15.8923C74.2297 16.2023 74.0647 16.6223 74.0647 17.1523C74.0647 17.6723 74.2297 18.0923 74.5597 18.4123C74.8997 18.7323 75.3547 18.8923 75.9247 18.8923C76.4947 18.8923 76.9447 18.7323 77.2747 18.4123C77.6147 18.0923 77.7847 17.6723 77.7847 17.1523C77.7847 16.6223 77.6147 16.2023 77.2747 15.8923C76.9447 15.5723 76.4947 15.4123 75.9247 15.4123ZM81.7447 10.0573C81.9447 10.0573 82.1197 10.1073 82.2697 10.2073C82.4197 10.3073 82.4947 10.4673 82.4947 10.6873V14.7373H84.1447C84.3447 14.7373 84.4847 14.8023 84.5647 14.9323C84.6547 15.0523 84.6997 15.2023 84.6997 15.3823C84.6997 15.5623 84.6547 15.7173 84.5647 15.8473C84.4847 15.9773 84.3447 16.0423 84.1447 16.0423H82.4947V22.3873C82.4947 22.6073 82.4197 22.7673 82.2697 22.8673C82.1197 22.9673 81.9447 23.0173 81.7447 23.0173C81.5547 23.0173 81.3847 22.9673 81.2347 22.8673C81.0847 22.7673 81.0097 22.6073 81.0097 22.3873V10.6873C81.0097 10.4673 81.0847 10.3073 81.2347 10.2073C81.3847 10.1073 81.5547 10.0573 81.7447 10.0573ZM91.377 11.0773C91.817 11.0773 92.117 11.1573 92.277 11.3173C92.447 11.4773 92.532 11.7723 92.532 12.2023V13.8973C92.532 14.3173 92.507 14.6973 92.457 15.0373C92.407 15.3673 92.312 15.6823 92.172 15.9823C92.032 16.2823 91.837 16.5773 91.587 16.8673C91.337 17.1473 91.012 17.4473 90.612 17.7673C90.222 18.0773 89.747 18.4173 89.187 18.7873C88.627 19.1573 87.962 19.5773 87.192 20.0473C87.022 20.1473 86.852 20.1673 86.682 20.1073C86.512 20.0373 86.377 19.9323 86.277 19.7923C86.177 19.6523 86.127 19.4873 86.127 19.2973C86.137 19.1073 86.227 18.9573 86.397 18.8473C87.107 18.4173 87.712 18.0423 88.212 17.7223C88.722 17.3923 89.147 17.0973 89.487 16.8373C89.827 16.5673 90.097 16.3223 90.297 16.1023C90.507 15.8723 90.667 15.6473 90.777 15.4273C90.887 15.1973 90.957 14.9573 90.987 14.7073C91.017 14.4473 91.032 14.1573 91.032 13.8373V12.6823C91.032 12.5723 91.007 12.4973 90.957 12.4573C90.917 12.4073 90.837 12.3823 90.717 12.3823H86.817C86.627 12.3823 86.487 12.3173 86.397 12.1873C86.317 12.0573 86.277 11.9073 86.277 11.7373C86.277 11.5573 86.317 11.4023 86.397 11.2723C86.487 11.1423 86.627 11.0773 86.817 11.0773H91.377ZM96.027 10.0573C96.227 10.0573 96.402 10.1073 96.552 10.2073C96.712 10.3073 96.792 10.4673 96.792 10.6873V22.3873C96.792 22.6073 96.712 22.7673 96.552 22.8673C96.402 22.9673 96.227 23.0173 96.027 23.0173C95.837 23.0173 95.662 22.9673 95.502 22.8673C95.352 22.7673 95.277 22.6073 95.277 22.3873V10.6873C95.277 10.4673 95.352 10.3073 95.502 10.2073C95.662 10.1073 95.837 10.0573 96.027 10.0573Z" fill="white"/>
</svg>
