<svg width="144" height="36" viewBox="0 0 144 36" fill="none" xmlns="http://www.w3.org/2000/svg">
<rect width="144" height="36" rx="18" fill="#5B7CFD"/>
<path d="M44.86 12.1982C45.04 12.1982 45.17 12.2632 45.25 12.3932C45.34 12.5232 45.385 12.6732 45.385 12.8432C45.385 13.0132 45.34 13.1632 45.25 13.2932C45.17 13.4232 45.04 13.4882 44.86 13.4882H42.415V14.8982C42.415 15.2282 42.43 15.5232 42.46 15.7832C42.5 16.0432 42.565 16.2882 42.655 16.5182C42.745 16.7382 42.86 16.9532 43 17.1632C43.15 17.3732 43.335 17.5882 43.555 17.8082C43.875 18.1282 44.185 18.4332 44.485 18.7232C44.785 19.0132 45.06 19.2632 45.31 19.4732C45.46 19.6132 45.52 19.7732 45.49 19.9532C45.47 20.1332 45.4 20.2832 45.28 20.4032C45.16 20.5332 45.015 20.6132 44.845 20.6432C44.675 20.6732 44.515 20.6232 44.365 20.4932C44.145 20.2932 43.9 20.0682 43.63 19.8182C43.37 19.5582 43.085 19.2782 42.775 18.9782C42.565 18.7582 42.39 18.5732 42.25 18.4232C42.11 18.2632 42 18.1232 41.92 18.0032C41.84 17.8832 41.78 17.7782 41.74 17.6882C41.7 17.5982 41.675 17.5132 41.665 17.4332H41.65C41.63 17.5232 41.6 17.6132 41.56 17.7032C41.53 17.7932 41.47 17.8982 41.38 18.0182C41.3 18.1382 41.19 18.2782 41.05 18.4382C40.92 18.5982 40.745 18.7882 40.525 19.0082C40.225 19.3082 39.93 19.5982 39.64 19.8782C39.35 20.1582 39.045 20.4382 38.725 20.7182C38.565 20.8582 38.395 20.9032 38.215 20.8532C38.035 20.8032 37.89 20.7132 37.78 20.5832C37.66 20.4432 37.595 20.2882 37.585 20.1182C37.585 19.9382 37.66 19.7832 37.81 19.6532C38.16 19.3432 38.49 19.0382 38.8 18.7382C39.11 18.4382 39.425 18.1282 39.745 17.8082C39.965 17.5882 40.145 17.3732 40.285 17.1632C40.435 16.9532 40.555 16.7382 40.645 16.5182C40.735 16.2882 40.795 16.0432 40.825 15.7832C40.865 15.5232 40.885 15.2282 40.885 14.8982V13.4882H38.365C38.175 13.4882 38.035 13.4232 37.945 13.2932C37.865 13.1632 37.825 13.0132 37.825 12.8432C37.825 12.6732 37.865 12.5232 37.945 12.3932C38.035 12.2632 38.175 12.1982 38.365 12.1982H44.86ZM47.44 11.1482C47.64 11.1482 47.815 11.1982 47.965 11.2982C48.115 11.3982 48.19 11.5582 48.19 11.7782V15.6782H49.84C50.04 15.6782 50.18 15.7432 50.26 15.8732C50.35 15.9932 50.395 16.1432 50.395 16.3232C50.395 16.5032 50.35 16.6582 50.26 16.7882C50.18 16.9182 50.04 16.9832 49.84 16.9832H48.19V23.4782C48.19 23.6982 48.115 23.8582 47.965 23.9582C47.815 24.0582 47.64 24.1082 47.44 24.1082C47.24 24.1082 47.065 24.0582 46.915 23.9582C46.765 23.8582 46.69 23.6982 46.69 23.4782V11.7782C46.69 11.5582 46.765 11.3982 46.915 11.2982C47.065 11.1982 47.24 11.1482 47.44 11.1482ZM54.5973 11.9432C54.7973 11.9432 54.9723 11.9932 55.1223 12.0932C55.2723 12.1932 55.3473 12.3532 55.3473 12.5732V14.8682C55.3473 15.1882 55.3623 15.4732 55.3923 15.7232C55.4223 15.9732 55.4723 16.2132 55.5423 16.4432C55.6223 16.6632 55.7173 16.8782 55.8273 17.0882C55.9473 17.2882 56.0973 17.4932 56.2773 17.7032C56.5373 18.0232 56.7923 18.3232 57.0423 18.6032C57.3023 18.8832 57.5323 19.1332 57.7323 19.3532C57.8623 19.4932 57.9173 19.6582 57.8973 19.8482C57.8773 20.0282 57.7973 20.1782 57.6573 20.2982C57.5373 20.4082 57.3873 20.4682 57.2073 20.4782C57.0273 20.4882 56.8673 20.4232 56.7273 20.2832C56.5773 20.1232 56.3923 19.9232 56.1723 19.6832C55.9623 19.4432 55.7423 19.1882 55.5123 18.9182C55.1723 18.5182 54.9423 18.2132 54.8223 18.0032C54.7123 17.7832 54.6423 17.5932 54.6123 17.4332H54.5973C54.5673 17.6032 54.4923 17.8032 54.3723 18.0332C54.2623 18.2532 54.0373 18.5682 53.6973 18.9782C53.4673 19.2382 53.2323 19.5032 52.9923 19.7732C52.7623 20.0332 52.5273 20.2882 52.2873 20.5382C52.1473 20.6782 51.9823 20.7432 51.7923 20.7332C51.6023 20.7132 51.4523 20.6482 51.3423 20.5382C51.2023 20.3982 51.1223 20.2382 51.1023 20.0582C51.0823 19.8682 51.1423 19.7032 51.2823 19.5632C51.5723 19.2532 51.8523 18.9482 52.1223 18.6482C52.4023 18.3382 52.6723 18.0232 52.9323 17.7032C53.1023 17.4932 53.2473 17.2882 53.3673 17.0882C53.4873 16.8782 53.5823 16.6632 53.6523 16.4432C53.7223 16.2132 53.7723 15.9732 53.8023 15.7232C53.8323 15.4732 53.8473 15.1882 53.8473 14.8682V12.5732C53.8473 12.3532 53.9223 12.1932 54.0723 12.0932C54.2323 11.9932 54.4073 11.9432 54.5973 11.9432ZM62.2173 11.1482C62.3973 11.1482 62.5573 11.1982 62.6973 11.2982C62.8473 11.3882 62.9223 11.5332 62.9223 11.7332V23.5232C62.9223 23.7232 62.8473 23.8682 62.6973 23.9582C62.5573 24.0582 62.3973 24.1082 62.2173 24.1082C62.0473 24.1082 61.8873 24.0582 61.7373 23.9582C61.5973 23.8682 61.5273 23.7232 61.5273 23.5232V11.7332C61.5273 11.5332 61.5973 11.3882 61.7373 11.2982C61.8873 11.1982 62.0473 11.1482 62.2173 11.1482ZM59.5323 11.2982C59.7023 11.2982 59.8573 11.3482 59.9973 11.4482C60.1473 11.5382 60.2223 11.6832 60.2223 11.8832V22.8932C60.2223 23.0932 60.1473 23.2382 59.9973 23.3282C59.8573 23.4282 59.7023 23.4782 59.5323 23.4782C59.3523 23.4782 59.1873 23.4282 59.0373 23.3282C58.8973 23.2382 58.8273 23.0932 58.8273 22.8932V16.4582H57.3273C57.1473 16.4582 57.0123 16.3982 56.9223 16.2782C56.8423 16.1482 56.8023 15.9932 56.8023 15.8132C56.8023 15.6332 56.8423 15.4832 56.9223 15.3632C57.0123 15.2332 57.1473 15.1682 57.3273 15.1682H58.8273V11.8832C58.8273 11.6832 58.8973 11.5382 59.0373 11.4482C59.1873 11.3482 59.3523 11.2982 59.5323 11.2982ZM69.2397 15.2882C69.7497 15.2882 70.2047 15.3632 70.6047 15.5132C71.0047 15.6532 71.3397 15.8532 71.6097 16.1132C71.8897 16.3732 72.1047 16.6832 72.2547 17.0432C72.4047 17.4032 72.4797 17.8032 72.4797 18.2432C72.4797 18.6832 72.4047 19.0832 72.2547 19.4432C72.1047 19.8032 71.8897 20.1132 71.6097 20.3732C71.3397 20.6332 71.0047 20.8382 70.6047 20.9882C70.2047 21.1282 69.7497 21.1982 69.2397 21.1982C68.7297 21.1982 68.2747 21.1282 67.8747 20.9882C67.4747 20.8382 67.1347 20.6332 66.8547 20.3732C66.5847 20.1132 66.3747 19.8032 66.2247 19.4432C66.0747 19.0832 65.9997 18.6832 65.9997 18.2432C65.9997 17.8032 66.0747 17.4032 66.2247 17.0432C66.3747 16.6832 66.5847 16.3732 66.8547 16.1132C67.1347 15.8532 67.4747 15.6532 67.8747 15.5132C68.2747 15.3632 68.7297 15.2882 69.2397 15.2882ZM69.2397 11.1182C69.4397 11.1182 69.6147 11.1682 69.7647 11.2682C69.9147 11.3682 69.9897 11.5282 69.9897 11.7482V13.0382H72.7047C72.8847 13.0382 73.0147 13.1032 73.0947 13.2332C73.1847 13.3532 73.2297 13.4982 73.2297 13.6682C73.2297 13.8382 73.1847 13.9882 73.0947 14.1182C73.0147 14.2482 72.8847 14.3132 72.7047 14.3132H65.6097C65.4297 14.3132 65.2947 14.2482 65.2047 14.1182C65.1247 13.9882 65.0847 13.8382 65.0847 13.6682C65.0847 13.4982 65.1247 13.3532 65.2047 13.2332C65.2947 13.1032 65.4297 13.0382 65.6097 13.0382H68.4897V11.7482C68.4897 11.5282 68.5647 11.3682 68.7147 11.2682C68.8747 11.1682 69.0497 11.1182 69.2397 11.1182ZM69.2397 16.5032C68.6597 16.5032 68.1997 16.6632 67.8597 16.9832C67.5297 17.2932 67.3647 17.7132 67.3647 18.2432C67.3647 18.7632 67.5297 19.1832 67.8597 19.5032C68.1997 19.8232 68.6597 19.9832 69.2397 19.9832C69.8197 19.9832 70.2747 19.8232 70.6047 19.5032C70.9447 19.1832 71.1147 18.7632 71.1147 18.2432C71.1147 17.7132 70.9447 17.2932 70.6047 16.9832C70.2747 16.6632 69.8197 16.5032 69.2397 16.5032ZM75.3747 11.1482C75.5747 11.1482 75.7497 11.1982 75.8997 11.2982C76.0597 11.3982 76.1397 11.5582 76.1397 11.7782V23.4782C76.1397 23.6982 76.0597 23.8582 75.8997 23.9582C75.7497 24.0582 75.5747 24.1082 75.3747 24.1082C75.1847 24.1082 75.0097 24.0582 74.8497 23.9582C74.6997 23.8582 74.6247 23.6982 74.6247 23.4782V11.7782C74.6247 11.5582 74.6997 11.3982 74.8497 11.2982C75.0097 11.1982 75.1847 11.1482 75.3747 11.1482ZM80.927 11.7782C81.117 11.7782 81.287 11.8332 81.437 11.9432C81.597 12.0432 81.677 12.1982 81.677 12.4082V14.1932H87.887V12.4082C87.887 12.1982 87.962 12.0432 88.112 11.9432C88.272 11.8332 88.442 11.7782 88.622 11.7782C88.822 11.7782 88.997 11.8332 89.147 11.9432C89.307 12.0432 89.387 12.1982 89.387 12.4082V17.7032C89.387 18.1332 89.302 18.4282 89.132 18.5882C88.972 18.7482 88.672 18.8282 88.232 18.8282H81.332C80.892 18.8282 80.592 18.7482 80.432 18.5882C80.272 18.4282 80.192 18.1332 80.192 17.7032V12.4082C80.192 12.1982 80.267 12.0432 80.417 11.9432C80.567 11.8332 80.737 11.7782 80.927 11.7782ZM81.677 17.2532C81.677 17.4532 81.782 17.5532 81.992 17.5532H87.572C87.782 17.5532 87.887 17.4532 87.887 17.2532V15.4682H81.677V17.2532ZM85.532 21.5282H90.557C90.737 21.5282 90.867 21.5932 90.947 21.7232C91.037 21.8432 91.082 21.9882 91.082 22.1582C91.082 22.3282 91.037 22.4782 90.947 22.6082C90.867 22.7382 90.737 22.8032 90.557 22.8032H79.007C78.827 22.8032 78.692 22.7382 78.602 22.6082C78.522 22.4782 78.482 22.3282 78.482 22.1582C78.482 21.9882 78.522 21.8432 78.602 21.7232C78.692 21.5932 78.827 21.5282 79.007 21.5282H84.032V18.0332H85.532V21.5282ZM98.0294 12.1682C98.4694 12.1682 98.7694 12.2482 98.9294 12.4082C99.0994 12.5682 99.1844 12.8632 99.1844 13.2932V14.9882C99.1844 15.4082 99.1594 15.7882 99.1094 16.1282C99.0594 16.4582 98.9644 16.7732 98.8244 17.0732C98.6844 17.3732 98.4894 17.6682 98.2394 17.9582C97.9894 18.2382 97.6644 18.5382 97.2644 18.8582C96.8744 19.1682 96.3994 19.5082 95.8394 19.8782C95.2794 20.2482 94.6144 20.6682 93.8444 21.1382C93.6744 21.2382 93.5044 21.2582 93.3344 21.1982C93.1644 21.1282 93.0294 21.0232 92.9294 20.8832C92.8294 20.7432 92.7794 20.5782 92.7794 20.3882C92.7894 20.1982 92.8794 20.0482 93.0494 19.9382C93.7594 19.5082 94.3644 19.1332 94.8644 18.8132C95.3744 18.4832 95.7994 18.1882 96.1394 17.9282C96.4794 17.6582 96.7494 17.4132 96.9494 17.1932C97.1594 16.9632 97.3194 16.7382 97.4294 16.5182C97.5394 16.2882 97.6094 16.0482 97.6394 15.7982C97.6694 15.5382 97.6844 15.2482 97.6844 14.9282V13.7732C97.6844 13.6632 97.6594 13.5882 97.6094 13.5482C97.5694 13.4982 97.4894 13.4732 97.3694 13.4732H93.4694C93.2794 13.4732 93.1394 13.4082 93.0494 13.2782C92.9694 13.1482 92.9294 12.9982 92.9294 12.8282C92.9294 12.6482 92.9694 12.4932 93.0494 12.3632C93.1394 12.2332 93.2794 12.1682 93.4694 12.1682H98.0294ZM102.679 11.1482C102.879 11.1482 103.054 11.1982 103.204 11.2982C103.364 11.3982 103.444 11.5582 103.444 11.7782V23.4782C103.444 23.6982 103.364 23.8582 103.204 23.9582C103.054 24.0582 102.879 24.1082 102.679 24.1082C102.489 24.1082 102.314 24.0582 102.154 23.9582C102.004 23.8582 101.929 23.6982 101.929 23.4782V11.7782C101.929 11.5582 102.004 11.3982 102.154 11.2982C102.314 11.1982 102.489 11.1482 102.679 11.1482Z" fill="white"/>
</svg>
